<svg width="1440" height="272" viewBox="0 0 1440 272" fill="none" xmlns="http://www.w3.org/2000/svg">
<g clip-path="url(#clip0_1697_64)">
<path d="M1672 -7.04836L1636.68 36.9215C1601.49 80.4794 1530.45 169.037 1460.33 207.137C1389.82 245.238 1318.78 234.94 1248.67 207.137C1178.16 179.334 1107.11 136.085 1037 124.758C966.489 113.431 895.448 136.085 825.333 119.301C754.822 103.134 683.781 47.5278 613.667 58.8549C543.155 70.182 472.115 146.383 402 146.692C331.489 146.383 260.448 70.182 190.333 69.8731C119.822 70.182 48.7813 146.383 -21.3333 179.643C-91.8447 212.286 -162.885 201.989 -197.281 196.119L-233 190.661V-40H-197.678C-162.489 -40 -91.4479 -40 -21.3333 -40C49.1782 -40 120.219 -40 190.333 -40C260.845 -40 331.885 -40 402 -40C472.511 -40 543.552 -40 613.667 -40C684.178 -40 755.219 -40 825.333 -40C895.845 -40 966.885 -40 1037 -40C1107.51 -40 1178.55 -40 1248.67 -40C1319.18 -40 1390.22 -40 1460.33 -40C1530.84 -40 1601.89 -40 1636.28 -40H1672V-7.04836Z" fill="#8FABD4"/>
</g>
<defs>
<clipPath id="clip0_1697_64">
<rect width="1440" height="272" fill="white"/>
</clipPath>
</defs>
</svg>
