<svg width="1440" height="953" viewBox="0 0 1440 953" fill="none" xmlns="http://www.w3.org/2000/svg">
<g clip-path="url(#clip0_1693_36)">
<path d="M-127 288.018L-97.9452 245.341C-68.9992 203.064 -10.5632 117.111 47.1111 80.1315C105.112 43.1518 163.548 53.1463 221.222 80.1315C279.223 107.117 337.659 149.094 395.333 160.088C453.334 171.082 511.77 149.094 569.444 165.385C627.445 181.076 685.881 235.047 743.556 224.053C801.556 213.059 859.992 139.099 917.667 138.799C975.667 139.099 1034.1 213.059 1091.78 213.358C1149.78 213.059 1208.21 139.099 1265.89 106.817C1323.89 75.1342 1382.33 85.1288 1410.62 90.8256L1440 96.1227V320H1410.95C1382 320 1323.56 320 1265.89 320C1207.89 320 1149.45 320 1091.78 320C1033.78 320 975.341 320 917.667 320C859.666 320 801.23 320 743.556 320C685.555 320 627.119 320 569.444 320C511.444 320 453.008 320 395.333 320C337.333 320 278.897 320 221.222 320C163.221 320 104.785 320 47.1111 320C-10.8896 320 -69.3257 320 -97.6187 320H-127V288.018Z" fill="#081626"/>
<path d="M-65 372.018L-35.9823 329.341C-7.07326 287.064 51.2882 201.111 108.889 164.132C166.816 127.152 225.177 137.146 282.778 164.132C340.705 191.117 399.066 233.094 456.667 244.088C514.593 255.082 572.955 233.094 630.556 249.385C688.482 265.076 746.844 319.047 804.444 308.053C862.371 297.059 920.733 223.099 978.333 222.799C1036.26 223.099 1094.62 297.059 1152.22 297.358C1210.15 297.059 1268.51 223.099 1326.11 190.817C1384.04 159.134 1442.4 169.129 1470.66 174.826L1500 180.123V404H1470.98C1442.07 404 1383.71 404 1326.11 404C1268.18 404 1209.82 404 1152.22 404C1094.3 404 1035.93 404 978.333 404C920.407 404 862.045 404 804.444 404C746.518 404 688.156 404 630.556 404C572.629 404 514.267 404 456.667 404C398.74 404 340.378 404 282.778 404C224.851 404 166.49 404 108.889 404C50.9622 404 -7.3993 404 -35.6562 404H-65V372.018Z" fill="#112D4E"/>
<path d="M-35 415.018L-5.98229 372.341C22.9267 330.064 81.2882 244.111 138.889 207.132C196.816 170.152 255.177 180.146 312.778 207.132C370.705 234.117 429.066 276.094 486.667 287.088C544.593 298.082 602.955 276.094 660.556 292.385C718.482 308.076 776.844 362.047 834.444 351.053C892.371 340.059 950.733 266.099 1008.33 265.799C1066.26 266.099 1124.62 340.059 1182.22 340.358C1240.15 340.059 1298.51 266.099 1356.11 233.817C1414.04 202.134 1472.4 212.129 1500.66 217.826L1530 223.123V447H1500.98C1472.07 447 1413.71 447 1356.11 447C1298.18 447 1239.82 447 1182.22 447C1124.3 447 1065.93 447 1008.33 447C950.407 447 892.045 447 834.444 447C776.518 447 718.156 447 660.556 447C602.629 447 544.267 447 486.667 447C428.74 447 370.378 447 312.778 447C254.851 447 196.49 447 138.889 447C80.9622 447 22.6007 447 -5.65625 447H-35V415.018Z" fill="#4A70A9"/>
<path d="M-45 482.018L-14.8698 439.341C15.1476 397.064 75.7465 311.111 135.556 274.132C195.703 237.152 256.302 247.146 316.111 274.132C376.259 301.117 436.858 343.094 496.667 354.088C556.814 365.082 617.413 343.094 677.222 359.385C737.37 375.076 797.969 429.047 857.778 418.053C917.925 407.059 978.524 333.099 1038.33 332.799C1098.48 333.099 1159.08 407.059 1218.89 407.358C1279.04 407.059 1339.64 333.099 1399.44 300.817C1459.59 269.134 1520.19 279.129 1549.53 284.826L1580 290.123V514H1549.87C1519.85 514 1459.25 514 1399.44 514C1339.3 514 1278.7 514 1218.89 514C1158.74 514 1098.14 514 1038.33 514C978.186 514 917.587 514 857.778 514C797.63 514 737.031 514 677.222 514C617.075 514 556.476 514 496.667 514C436.519 514 375.92 514 316.111 514C255.964 514 195.365 514 135.556 514C75.408 514 14.809 514 -14.5313 514H-45V482.018Z" fill="#8FABD4"/>
</g>
<defs>
<clipPath id="clip0_1693_36">
<rect width="1440" height="953" fill="white"/>
</clipPath>
</defs>
</svg>
