<svg width="1440" height="476" viewBox="0 0 1440 476" fill="none" xmlns="http://www.w3.org/2000/svg">
<g clip-path="url(#clip0_1693_36)">
<path d="M-154 268.744L-113.746 227.038C-73.6429 185.722 7.31731 101.722 87.2222 65.5831C167.579 29.4438 248.539 39.2112 328.444 65.5831C408.801 91.955 489.762 132.978 569.667 143.722C650.024 154.466 730.984 132.978 810.889 148.899C891.246 164.234 972.206 216.977 1052.11 206.233C1132.47 195.489 1213.43 123.211 1293.33 122.918C1373.69 123.211 1454.65 195.489 1534.56 195.782C1614.91 195.489 1695.87 123.211 1775.78 91.662C1856.13 60.6994 1937.1 70.4668 1976.29 76.0342L2017 81.2109V300H1976.75C1936.64 300 1855.68 300 1775.78 300C1695.42 300 1614.46 300 1534.56 300C1454.2 300 1373.24 300 1293.33 300C1212.98 300 1132.02 300 1052.11 300C971.754 300 890.794 300 810.889 300C730.532 300 649.571 300 569.667 300C489.309 300 408.349 300 328.444 300C248.087 300 167.127 300 87.2222 300C6.86501 300 -74.0953 300 -113.294 300H-154V268.744Z" fill="#081626"/>
<path d="M-98 399.081L-54.0193 348.484C-10.2032 298.36 78.2526 196.454 165.555 152.61C253.352 108.767 341.808 120.617 429.111 152.61C516.908 184.604 605.364 234.372 692.667 247.407C780.464 260.442 868.919 234.372 956.222 253.687C1044.02 272.291 1132.47 336.279 1219.78 323.244C1307.57 310.21 1396.03 222.523 1483.33 222.167C1571.13 222.523 1659.59 310.21 1746.89 310.565C1834.69 310.21 1923.14 222.523 2010.44 184.249C2098.24 146.686 2186.7 158.535 2229.52 165.29L2274 171.57V437H2230.02C2186.2 437 2097.75 437 2010.44 437C1922.65 437 1834.19 437 1746.89 437C1659.09 437 1570.64 437 1483.33 437C1395.54 437 1307.08 437 1219.78 437C1131.98 437 1043.52 437 956.222 437C868.425 437 779.969 437 692.667 437C604.87 437 516.414 437 429.111 437C341.314 437 252.858 437 165.555 437C77.7585 437 -10.6974 437 -53.5251 437H-98V399.081Z" fill="#112D4E"/>
<path d="M-513 433.357L-463.605 376.455C-414.395 320.085 -315.05 205.482 -217 156.175C-118.395 106.869 -19.05 120.195 79 156.175C177.605 192.156 276.95 248.125 375 262.784C473.605 277.442 572.95 248.125 671 269.846C769.605 290.768 868.95 362.729 967 348.07C1065.6 333.411 1164.95 234.799 1263 234.399C1361.6 234.799 1460.95 333.412 1559 333.811C1657.6 333.412 1756.95 234.799 1855 191.756C1953.6 149.512 2052.95 162.838 2101.05 170.434L2151 177.497V476H2101.61C2052.4 476 1953.05 476 1855 476C1756.39 476 1657.05 476 1559 476C1460.39 476 1361.05 476 1263 476C1164.39 476 1065.05 476 967 476C868.395 476 769.05 476 671 476C572.395 476 473.05 476 375 476C276.395 476 177.05 476 79 476C-19.605 476 -118.95 476 -217 476C-315.605 476 -414.95 476 -463.05 476H-513V433.357Z" fill="#3F72AF"/>
<path d="M-122 454.678L-92.8711 426.227C-63.8512 398.043 -5.26611 340.741 52.5554 316.088C110.704 291.435 169.289 298.098 227.111 316.088C285.26 334.078 343.845 362.062 401.667 369.392C459.815 376.721 518.401 362.062 576.222 372.923C634.371 383.384 692.956 419.364 750.778 412.035C808.927 404.706 867.512 355.399 925.333 355.2C983.482 355.399 1042.07 404.706 1099.89 404.906C1158.04 404.706 1216.62 355.399 1274.44 333.878C1332.59 312.756 1391.18 319.419 1419.54 323.217L1449 326.749V476H1419.87C1390.85 476 1332.27 476 1274.44 476C1216.3 476 1157.71 476 1099.89 476C1041.74 476 983.155 476 925.333 476C867.184 476 808.599 476 750.778 476C692.629 476 634.044 476 576.222 476C518.073 476 459.488 476 401.667 476C343.518 476 284.932 476 227.111 476C168.962 476 110.377 476 52.5554 476C-5.5934 476 -64.1787 476 -92.5439 476H-122V454.678Z" fill="#8FABD4"/>
</g>
<defs>
<clipPath id="clip0_1693_36">
<rect width="1440" height="476" fill="white"/>
</clipPath>
</defs>
</svg>
