<svg width="1440" height="272" viewBox="0 0 1440 272" fill="none" xmlns="http://www.w3.org/2000/svg">
<g clip-path="url(#clip0_1702_32)">
<mask id="mask0_1702_32" style="mask-type:luminance" maskUnits="userSpaceOnUse" x="0" y="0" width="1440" height="272">
<path d="M1440 0H0V272H1440V0Z" fill="white"/>
</mask>
<g mask="url(#mask0_1702_32)">
<path d="M1712 24.3151L1676.68 68.7699C1641.49 112.808 1570.45 202.343 1500.33 240.863C1429.82 279.384 1358.78 268.972 1288.67 240.863C1218.16 212.753 1147.11 169.027 1077 157.575C1006.49 146.123 935.448 169.027 865.333 152.058C794.822 135.713 723.781 79.4932 653.667 90.9452C583.155 102.397 512.115 179.439 442 179.751C371.489 179.439 300.448 102.397 230.333 102.085C159.822 102.397 88.7813 179.439 18.6667 213.066C-51.8447 246.069 -122.885 235.658 -157.281 229.723L-193 224.205V-9H-157.678C-122.489 -9 -51.4479 -9 18.6667 -9C89.1782 -9 160.219 -9 230.333 -9C300.845 -9 371.885 -9 442 -9C512.511 -9 583.552 -9 653.667 -9C724.178 -9 795.219 -9 865.333 -9C935.845 -9 1006.89 -9 1077 -9C1147.51 -9 1218.55 -9 1288.67 -9C1359.18 -9 1430.22 -9 1500.33 -9C1570.84 -9 1641.89 -9 1676.28 -9H1712V24.3151Z" fill="#3F72AF"/>
<g filter="url(#filter0_d_1702_32)">
<path d="M1672 -7.04836L1636.68 36.9215C1601.49 80.4794 1530.45 169.037 1460.33 207.137C1389.82 245.238 1318.78 234.94 1248.67 207.137C1178.16 179.334 1107.11 136.085 1037 124.758C966.489 113.431 895.448 136.085 825.333 119.301C754.822 103.134 683.781 47.5278 613.667 58.8549C543.155 70.182 472.115 146.383 402 146.692C331.489 146.383 260.448 70.182 190.333 69.8731C119.822 70.182 48.7813 146.383 -21.3333 179.643C-91.8447 212.286 -162.885 201.989 -197.281 196.119L-233 190.661V-40H-197.678C-162.489 -40 -91.4479 -40 -21.3333 -40C49.1782 -40 120.219 -40 190.333 -40C260.845 -40 331.885 -40 402 -40C472.511 -40 543.552 -40 613.667 -40C684.178 -40 755.219 -40 825.333 -40C895.845 -40 966.885 -40 1037 -40C1107.51 -40 1178.55 -40 1248.67 -40C1319.18 -40 1390.22 -40 1460.33 -40C1530.84 -40 1601.89 -40 1636.28 -40H1672V-7.04836Z" fill="#8FABD4"/>
</g>
</g>
</g>
<defs>
<filter id="filter0_d_1702_32" x="-295.5" y="-98.5" width="2030" height="397" filterUnits="userSpaceOnUse" color-interpolation-filters="sRGB">
<feFlood flood-opacity="0" result="BackgroundImageFix"/>
<feColorMatrix in="SourceAlpha" type="matrix" values="0 0 0 0 0 0 0 0 0 0 0 0 0 0 0 0 0 0 127 0" result="hardAlpha"/>
<feOffset dy="4"/>
<feGaussianBlur stdDeviation="31.25"/>
<feComposite in2="hardAlpha" operator="out"/>
<feColorMatrix type="matrix" values="0 0 0 0 0 0 0 0 0 0 0 0 0 0 0 0 0 0 0.25 0"/>
<feBlend mode="normal" in2="BackgroundImageFix" result="effect1_dropShadow_1702_32"/>
<feBlend mode="normal" in="SourceGraphic" in2="effect1_dropShadow_1702_32" result="shape"/>
</filter>
<clipPath id="clip0_1702_32">
<rect width="1440" height="272" fill="white"/>
</clipPath>
</defs>
</svg>
